<!DOCTYPE svg PUBLIC "-//W3C//DTD SVG 1.1//EN" "http://www.w3.org/Graphics/SVG/1.1/DTD/svg11.dtd">
<!-- Uploaded to: SVG Repo, www.svgrepo.com, Transformed by: SVG Repo Mixer Tools -->
<svg version="1.1" id="Layer_1" xmlns="http://www.w3.org/2000/svg" xmlns:xlink="http://www.w3.org/1999/xlink" viewBox="0 0 512 512" xml:space="preserve" width="256px" height="256px" fill="#000000">
<g id="SVGRepo_bgCarrier" stroke-width="0"/>
<g id="SVGRepo_tracerCarrier" stroke-linecap="round" stroke-linejoin="round"/>
<g id="SVGRepo_iconCarrier"> <polygon style="fill:#BADB82;" points="323.095,299.132 503.425,299.132 503.425,106.051 108.154,106.051 108.154,299.132 "/> <path style="fill:#F4C67D;" d="M270.348,236.594H30.962c-12.364,0-22.387,10.023-22.387,22.387V383.61 c0,12.364,10.023,22.387,22.387,22.387h239.386c12.364,0,22.387-10.023,22.387-22.387V258.981 C292.736,246.617,282.713,236.594,270.348,236.594z"/> <rect x="8.575" y="273.627" style="fill:#666666;" width="284.157" height="40.073"/> <path d="M270.348,227.994H30.962C13.889,227.994,0,241.884,0,258.957v124.629c0,17.073,13.889,30.962,30.962,30.962h194.172 c4.736,0,8.575-3.839,8.575-8.575s-3.839-8.575-8.575-8.575H30.962c-7.617,0-13.812-6.196-13.812-13.812v-61.331H284.16v61.331 c0,7.617-6.196,13.812-13.812,13.812h-16.632c-4.736,0-8.575,3.839-8.575,8.575s3.839,8.575,8.575,8.575h16.632 c17.073,0,30.962-13.889,30.962-30.962V258.957C301.31,241.884,287.421,227.994,270.348,227.994z M17.15,305.105v-22.924h51.353 c4.736,0,8.575-3.839,8.575-8.575c0-4.736-3.839-8.575-8.575-8.575H17.15v-6.074c0-7.617,6.196-13.812,13.812-13.812h239.386 c7.617,0,13.812,6.196,13.812,13.812v6.074H97.085c-4.736,0-8.575,3.839-8.575,8.575c0,4.736,3.839,8.575,8.575,8.575h187.077 v22.924H17.15z"/> <path d="M108.154,214.779c4.736,0,8.575-3.839,8.575-8.575v-39.387c27.007-3.792,48.425-25.209,52.216-52.216h199.102 c4.736,0,8.575-3.839,8.575-8.575c0-4.736-3.839-8.575-8.575-8.575H108.154c-4.736,0-8.575,3.839-8.575,8.575v100.177 C99.579,210.94,103.419,214.779,108.154,214.779z M151.565,114.601c-3.457,17.535-17.302,31.379-34.836,34.836v-34.836H151.565z"/> <path d="M503.425,97.452H396.63c-4.736,0-8.575,3.839-8.575,8.575c0,4.736,3.839,8.575,8.575,8.575h46.017 c3.791,27.006,25.203,48.423,52.204,52.216v71.5c-27.001,3.792-48.413,25.21-52.204,52.216H323.095 c-4.736,0-8.575,3.839-8.575,8.575s3.839,8.575,8.575,8.575h180.33c4.736,0,8.575-3.839,8.575-8.575V106.027 C512,101.291,508.161,97.452,503.425,97.452z M460.025,114.601h34.825v34.835C477.321,145.978,463.482,132.135,460.025,114.601z M460.025,290.533c3.456-17.534,17.296-31.378,34.825-34.836v34.836H460.025z"/> <path d="M321.502,245.129c-4.653,0.88-7.712,5.366-6.831,10.019c0.779,4.115,4.375,6.982,8.416,6.982 c0.528,0,1.066-0.049,1.603-0.151c35.35-6.687,60.039-31.121,60.039-59.419c0-33.73-35.412-61.171-78.938-61.171 c-43.52,0-78.927,27.442-78.927,61.171c0,1.434,0.07,2.921,0.206,4.42c0.429,4.716,4.601,8.186,9.317,7.763 c4.716-0.429,8.192-4.601,7.763-9.317c-0.09-0.984-0.135-1.949-0.135-2.866c0-24.273,27.713-44.022,61.777-44.022 c34.07,0,61.789,19.748,61.789,44.022C367.578,222.493,348.631,239.998,321.502,245.129z"/> <path d="M38.935,339.714c-4.736,0-8.575,3.839-8.575,8.575s3.839,8.575,8.575,8.575h54.646c4.736,0,8.575-3.839,8.575-8.575 s-3.839-8.575-8.575-8.575H38.935z"/> </g>
</svg>