<svg width="276" height="153" viewBox="0 0 276 153" fill="none" xmlns="http://www.w3.org/2000/svg">
<path d="M233.26 45.9643C233.928 35.2726 232.126 20.5457 230.561 20.321C229.081 20.1139 223.221 30.255 220.693 34.7704C223.629 35.5149 226.157 37.7352 228.398 39.907C230.235 41.7308 231.885 43.744 233.26 45.9599V45.9643Z" fill="#FA9700"/>
<path d="M228.398 39.9114C226.157 37.7395 223.629 35.5149 220.693 34.7748C219.97 36.0655 219.516 36.8981 219.516 36.8981L232.46 52.1273C232.86 50.3872 233.117 48.2682 233.26 45.9687C231.882 43.7528 230.235 41.7396 228.398 39.9158V39.9114Z" fill="#F27006"/>
<path d="M199.041 45.9642C199.184 48.2638 199.441 50.3827 199.841 52.1228L212.785 36.8937C212.785 36.8937 212.331 36.0611 211.608 34.7703C208.672 35.5148 206.148 37.7351 203.903 39.9069C202.066 41.7307 200.415 43.7439 199.041 45.9598V45.9642Z" fill="#F27006"/>
<path d="M201.74 20.321C200.175 20.5457 198.373 35.2682 199.041 45.9643C200.415 43.7484 202.066 41.7352 203.903 39.9114C206.148 37.7396 208.676 35.5149 211.608 34.7748C209.076 30.2593 203.22 20.1139 201.74 20.3254V20.321Z" fill="#FA9700"/>
<path d="M210.125 102.735C216.537 106.238 223.769 104.273 230.289 101.502L229.136 79.4754L203.806 77.4534C202.493 80.2155 201.216 83.0525 199.977 85.938C201.363 92.8896 204.299 99.4931 210.129 102.735H210.125Z" fill="#F27006"/>
<path d="M210.125 102.735C204.299 99.4931 201.363 92.8896 199.973 85.938C185.292 120.097 175.796 160.996 175.796 160.996H233.404L230.289 101.506C223.768 104.277 216.541 106.242 210.125 102.74V102.735Z" fill="#FA9700"/>
<path d="M230.934 20.6382C227.497 24.4312 227.163 31.0699 227.831 36.4929C228.46 41.1625 230.445 44.8541 233.105 47.9775C234.087 38.0259 232.499 22.995 230.938 20.6382H230.934Z" fill="#FEB8AC"/>
<path d="M201.367 20.6382C204.804 24.4312 205.142 31.0699 204.47 36.4929C203.841 41.1625 201.856 44.8541 199.196 47.9775C198.213 38.0259 199.802 22.995 201.363 20.6382H201.367Z" fill="#FEB8AC"/>
<path d="M216.149 102.383C201.81 102.383 199.126 74.0877 198.054 60.4797C196.986 46.8717 205.659 35.2814 216.149 35.2814C226.639 35.2814 235.311 46.8717 234.243 60.4797C233.175 74.0877 230.487 102.383 216.149 102.383Z" fill="#FFF3DB"/>
<path d="M213.845 35.4752C204.427 37.0215 197.068 47.8806 198.058 60.4753C198.59 67.2683 199.53 77.7265 202.12 86.4931C204.668 74.8366 212.983 69.026 213.74 62.3608C214.482 55.8365 214.067 41.5986 213.845 35.4708V35.4752Z" fill="#FA9700"/>
<path d="M218.455 35.4753C218.238 41.6031 217.819 55.8411 218.56 62.3653C219.318 69.0305 227.633 74.8411 230.18 86.4976C232.771 77.731 233.707 67.2728 234.243 60.4798C235.233 47.8807 227.874 37.026 218.455 35.4797V35.4753Z" fill="#FA9700"/>
<path d="M224.157 66.7441C226.087 66.7441 227.594 64.352 227.594 61.2947C227.594 60.9026 227.314 60.5854 226.968 60.5854C226.623 60.5854 226.343 60.9026 226.343 61.2947C226.343 63.4797 225.341 65.3256 224.153 65.3256C222.964 65.3256 221.966 63.4797 221.966 61.2947C221.966 60.9026 221.687 60.5854 221.341 60.5854C220.995 60.5854 220.716 60.9026 220.716 61.2947C220.716 64.352 222.226 66.7441 224.153 66.7441H224.157Z" fill="#593A42"/>
<path d="M206.618 66.7441C208.544 66.7441 210.055 64.352 210.055 61.2947C210.055 60.9026 209.775 60.5854 209.43 60.5854C209.084 60.5854 208.804 60.9026 208.804 61.2947C208.804 63.4797 207.802 65.3256 206.614 65.3256C205.426 65.3256 204.427 63.4797 204.427 61.2947C204.427 60.9026 204.148 60.5854 203.802 60.5854C203.456 60.5854 203.177 60.9026 203.177 61.2947C203.177 64.352 204.688 66.7441 206.614 66.7441H206.618Z" fill="#593A42"/>
<path d="M209.433 92.5547C209.433 95.9028 212.443 98.6164 216.148 98.6164C219.853 98.6164 222.867 95.9028 222.867 92.5547C222.867 89.2067 219.861 86.493 216.148 86.493C212.435 86.493 209.433 89.2067 209.433 92.5547Z" fill="#593A42"/>
<path d="M218.455 87.5415C219.877 87.9556 220.991 89.1494 221.504 90.6957C221.865 91.7794 220.335 92.2464 219.978 91.1715C219.663 90.2155 218.89 89.5239 218.032 89.2728C217.046 88.982 217.465 87.2552 218.451 87.5415H218.455Z" fill="#936170"/>
<path d="M221.069 91.8058C221.458 91.6869 221.963 91.9512 222.044 92.4314C222.083 92.6693 222.133 92.8983 222.172 93.1362C222.25 93.6164 222.064 94.101 221.621 94.2419C221.236 94.3609 220.724 94.0966 220.65 93.6164C220.611 93.3785 220.561 93.145 220.522 92.9115C220.444 92.4314 220.63 91.9468 221.073 91.8058H221.069Z" fill="#936170"/>
<path d="M224.868 135.119C223.469 126.846 216.49 93.2332 205.317 110.832C200.354 118.577 198.023 128.608 196.163 137.581C194.536 145.251 193.417 153.145 192.473 160.996H227.676C227.042 152.321 226.258 143.669 224.868 135.119Z" fill="#FFF3DB"/>
<path d="M29.1399 54.3167C28.9185 54.5062 27.7068 59.2727 26.9806 62.2022L33.0159 64.4622V60.2947C33.0159 60.2947 29.4584 54.0436 29.1399 54.3167Z" fill="#FEB8AC"/>
<path d="M40.9578 58.286C40.317 56.656 31.4543 48.6119 28.5765 49.1538C25.6986 49.6956 24.0636 61.1142 24.0636 61.1142L26.9764 62.2067C27.7026 59.2727 28.9143 54.5106 29.1357 54.3212C29.4542 54.0481 33.0117 60.2992 33.0117 60.2992C33.0117 60.2992 38.0799 67.1847 38.7984 67.4578C39.5169 67.7309 41.5947 59.9203 40.9539 58.2904L40.9578 58.286Z" fill="#352328"/>
<path d="M11.8068 45.5282C12.0476 44.9863 17.0071 43.8057 17.0071 43.8057C17.0071 43.8057 19.4034 43.3519 19.5626 42.8982C19.7219 42.4444 16.5294 39.2903 14.4245 39.3299C9.80282 41.8321 2.62181 54.7661 7.65124 80.3168L9.46882 77.6604C6.31911 55.8145 11.8029 45.5282 11.8029 45.5282H11.8068Z" fill="#352328"/>
<path d="M17.0031 43.8057C17.0031 43.8057 12.0435 44.9819 11.8027 45.5282C11.8027 45.5282 6.31891 55.8146 9.46862 77.6605L20.3508 61.7441L17.0031 43.8057Z" fill="#FEB8AC"/>
<path d="M54.3606 80.2419C53.2227 74.308 39.1209 71.471 39.1209 71.471C30.2504 53.1537 15.6942 57.7969 8.87053 71.471C2.04682 85.145 8.39233e-05 160.996 8.39233e-05 160.996H41.7579L33.2914 94.8147C53.0208 94.4534 55.4986 86.1758 54.3606 80.2419Z" fill="#593A42"/>
<path d="M18.4168 160.996H41.7581L33.2915 94.8147C33.2915 94.8147 30.3088 95.2244 26.3125 94.894C26.3125 94.894 20.5296 144.07 18.4168 160.996Z" fill="#352328"/>
<path d="M28.5767 71.96C28.5767 76.101 26.2154 79.4578 23.3064 79.4578C20.3975 79.4578 18.0362 76.101 18.0362 71.96C18.0362 67.819 20.3975 64.4622 23.3064 64.4622C26.2154 64.4622 28.5767 67.819 28.5767 71.96Z" fill="#352328"/>
<path d="M25.4619 71.9601C25.4619 73.2596 24.8366 74.3169 24.0638 74.3169C23.2909 74.3169 22.6656 73.264 22.6656 71.9601C22.6656 70.6561 23.2909 69.6032 24.0638 69.6032C24.8366 69.6032 25.4619 70.6561 25.4619 71.9601Z" fill="#191113"/>
<path d="M34.4138 71.5327C34.4138 72.8322 33.7885 73.8851 33.0157 73.8851C32.2428 73.8851 31.6176 72.8322 31.6176 71.5327C31.6176 70.2331 32.2428 69.1758 33.0157 69.1758C33.7885 69.1758 34.4138 70.2287 34.4138 71.5327Z" fill="#191113"/>
<path d="M55.0168 79.4579C55.0168 82.0834 52.6555 84.2156 49.7466 84.2156C46.8377 84.2156 44.4764 82.0834 44.4764 79.4579C44.4764 76.8323 46.8377 74.7001 49.7466 74.7001C52.6555 74.7001 55.0168 76.8279 55.0168 79.4579Z" fill="#191113"/>
<path d="M48.1818 75.5239C47.0672 75.8499 46.1895 76.7838 45.7856 77.9997C45.5021 78.8499 46.7022 79.2156 46.9818 78.3741C47.2303 77.6252 47.8362 77.079 48.5081 76.8852C49.2809 76.6605 48.9547 75.2992 48.178 75.5283L48.1818 75.5239Z" fill="#593A42"/>
<path d="M46.1313 78.8719C45.8284 78.7794 45.4283 78.9864 45.3701 79.3653C45.339 79.5503 45.3002 79.7353 45.2691 79.9204C45.2108 80.2992 45.3545 80.6781 45.7041 80.7838C46.007 80.8763 46.407 80.6693 46.4653 80.2904C46.4925 80.1054 46.5352 79.9204 46.5663 79.7353C46.6245 79.3565 46.4808 78.9776 46.1313 78.8675V78.8719Z" fill="#593A42"/>
<path d="M31.7847 86.6208C31.7847 86.6208 24.9066 90.3741 26.5844 94.9953C28.2622 99.6164 36.8452 90.1715 36.8452 90.1715C36.8452 90.1715 34.4334 89.5988 31.7847 86.6252V86.6208Z" fill="#FEB8AC"/>
<path d="M29.9592 93.3432C31.2564 91.775 32.8254 90.3741 34.507 89.3653C34.8604 89.1538 34.5459 88.5459 34.1924 88.7573C32.4758 89.7882 30.8486 91.2419 29.5203 92.8454C29.2485 93.1758 29.6835 93.6736 29.9592 93.3432Z" fill="#FC8686"/>
<path d="M29.7963 83.1275C30.639 86.1627 32.4372 88.3037 34.9306 89.6958C38.3288 91.5945 41.6145 91.1231 45.1137 89.8984C45.4943 89.7663 45.3312 89.0834 44.9506 89.22C41.8358 90.3125 39.0473 90.7795 35.9287 89.427C33.2761 88.2773 31.2527 86.0261 30.3982 82.9424C30.2779 82.5107 29.6797 82.6957 29.8001 83.1275H29.7963Z" fill="#352328"/>
<path d="M91.3259 79.938C92.289 81.1186 93.2017 82.3168 94.0134 83.5812C92.9104 70.5591 88.8364 62.352 87.3722 62.3476C85.5508 62.3476 83.7604 70.0613 82.8399 74.7617C86.2965 75.2904 88.7432 76.8322 91.322 79.938H91.3259Z" fill="#FA9700"/>
<path d="M91.3258 79.938C88.747 76.8322 86.3003 75.2948 82.8438 74.7617C82.4399 76.819 82.203 78.3036 82.203 78.3036L94.2581 87.8323C94.2153 86.3653 94.1299 84.9468 94.0173 83.5811C93.2017 82.3168 92.2929 81.1186 91.3297 79.938H91.3258Z" fill="#FF740C"/>
<path d="M57.6772 84.7133C57.6072 85.7265 57.5529 86.7662 57.5218 87.8323L69.5769 78.3036C69.5769 78.3036 69.3633 76.96 68.9943 75.0613C66.7029 75.8674 64.4504 77.5679 62.6483 78.9335C60.722 80.4842 59.0209 82.4842 57.681 84.7177L57.6772 84.7133Z" fill="#FF740C"/>
<path d="M64.4038 62.3476C62.9008 62.3476 58.6326 71.0437 57.6772 84.7177C59.0171 82.4842 60.7181 80.4842 62.6445 78.9336C64.4465 77.5723 66.6991 75.8675 68.9905 75.0613C68.0895 70.3961 66.2641 62.3476 64.3999 62.3476H64.4038Z" fill="#FA9700"/>
<path d="M87.3762 65.8674C86.8014 65.7485 84.0983 77.5987 84.7547 78.5371C85.411 79.4754 91.4075 84.8631 91.7182 84.0481C92.0289 83.2287 88.5102 66.1009 87.3723 65.8674H87.3762Z" fill="#FEB8AC"/>
<path d="M64.4039 65.8674C64.9787 65.7485 67.6818 77.5987 67.0254 78.5371C66.3691 79.4754 60.3726 84.8631 60.0619 84.0481C59.7512 83.2287 63.2699 66.1009 64.4078 65.8674H64.4039Z" fill="#FEB8AC"/>
<path d="M92.1219 160.996C92.1219 160.996 100.037 115.885 96.7902 96.5504C93.5434 77.2155 80.7581 75.145 75.8879 75.145C71.0177 75.145 58.2325 77.2155 54.9896 96.5504C51.7428 115.885 59.6578 160.996 59.6578 160.996H92.1258H92.1219Z" fill="#FFF3DB"/>
<path d="M75.1501 75.1626C69.8372 75.3785 58.0851 78.123 54.9897 96.5503C51.7429 115.885 59.658 160.996 59.658 160.996H60.6211C52.9585 131.224 54.2635 93.8235 75.1501 75.1626Z" fill="#FFF9EE"/>
<path d="M74.1751 93.7839C76.3073 88.0437 74.8664 77.9512 76.3112 77.9512C77.7559 77.9512 76.3112 88.0437 78.4472 93.7839C80.0939 98.2244 90.6577 93.2068 95.3647 90.7045C90.7819 76.7926 80.2182 75.145 75.8917 75.145C71.5653 75.145 61.1957 76.753 56.543 90.3169C60.784 92.6297 72.4391 98.4623 74.1751 93.7839Z" fill="#FA9700"/>
<path d="M97.5242 111.863C96.2348 117.097 94.1997 122.136 91.718 126.991C86.7546 136.731 80.8591 145.762 78.3735 156.793C78.1055 157.934 77.7405 159.405 77.4375 160.996H92.1219C92.1219 160.996 96.9999 133.176 97.5242 111.863Z" fill="#FA9700"/>
<path d="M60.0618 126.991C57.5801 122.136 55.5451 117.092 54.2557 111.863C54.78 133.172 59.6579 160.996 59.6579 160.996H74.3423C74.0355 159.405 73.6743 157.934 73.4063 156.793C70.9246 145.766 65.0291 136.731 60.0618 126.991Z" fill="#FA9700"/>
<path d="M75.1499 75.1583C70.505 75.3478 60.9433 77.4755 56.543 90.317C57.945 91.0835 60.1587 92.2289 62.555 93.2553C65.5299 86.2465 69.6661 80.057 75.1538 75.1583H75.1499Z" fill="#FF9E10"/>
<path d="M59.6579 160.996H60.6211C57.2384 147.846 55.6033 133.211 56.6325 119.361C55.6888 116.907 54.8809 114.41 54.2557 111.868C54.78 133.176 59.6579 161 59.6579 161V160.996Z" fill="#FF9E10"/>
<path d="M72.0276 89.9424C71.7907 89.9424 71.6004 89.7265 71.6004 89.4578C71.6004 87.96 70.913 86.6957 70.1013 86.6957C69.2896 86.6957 68.6022 87.96 68.6022 89.4578C68.6022 89.7265 68.4119 89.9424 68.175 89.9424C67.9381 89.9424 67.7478 89.7265 67.7478 89.4578C67.7478 87.3653 68.7808 85.7265 70.1013 85.7265C71.4218 85.7265 72.4548 87.3653 72.4548 89.4578C72.4548 89.7265 72.2645 89.9424 72.0276 89.9424Z" fill="#593A42"/>
<path d="M83.5271 89.9424C83.2902 89.9424 83.0999 89.7265 83.0999 89.4578C83.0999 87.96 82.4125 86.6957 81.6008 86.6957C80.7891 86.6957 80.1017 87.96 80.1017 89.4578C80.1017 89.7265 79.9114 89.9424 79.6745 89.9424C79.4376 89.9424 79.2473 89.7265 79.2473 89.4578C79.2473 87.3653 80.2803 85.7265 81.6008 85.7265C82.9213 85.7265 83.9543 87.3653 83.9543 89.4578C83.9543 89.7265 83.764 89.9424 83.5271 89.9424Z" fill="#593A42"/>
<path d="M68.1788 99.6782C70.0702 103.471 73.2082 105.304 77.0221 105.092C80.7427 104.89 84.5332 102.009 85.0536 97.6033C85.1041 97.1583 84.5099 96.9689 84.4555 97.4183C83.9312 101.85 80.2028 104.216 76.5716 104.414C73.1655 104.599 70.3615 102.634 68.7109 99.3214C68.5128 98.9249 67.9768 99.2817 68.1749 99.6782H68.1788Z" fill="#593A42"/>
<path d="M76.5169 104.687C76.5247 102.846 76.3383 100.995 76.6102 99.1627C76.6762 98.7178 76.0781 98.5284 76.0121 98.9777C75.7286 100.876 75.9072 102.775 75.8955 104.687C75.8955 105.141 76.5131 105.141 76.5169 104.687Z" fill="#593A42"/>
<path d="M81.5388 96.0702C81.5388 98.6957 79.1775 100.828 76.2686 100.828C73.3597 100.828 70.9984 98.7001 70.9984 96.0702C70.9984 93.4402 73.3597 91.3124 76.2686 91.3124C79.1775 91.3124 81.5388 93.4402 81.5388 96.0702Z" fill="#593A42"/>
<path d="M74.4587 92.1318C73.3441 92.4578 72.4664 93.3917 72.0625 94.6076C71.7789 95.4578 72.979 95.8235 73.2587 94.9821C73.5072 94.2332 74.1131 93.6869 74.785 93.4931C75.5617 93.2684 75.2316 91.9072 74.4549 92.1362L74.4587 92.1318Z" fill="#936170"/>
<path d="M72.4042 95.4798C72.1013 95.3873 71.7013 95.5943 71.643 95.9732C71.612 96.1582 71.5692 96.3432 71.542 96.5283C71.4838 96.9071 71.6275 97.286 71.977 97.3961C72.2799 97.493 72.68 97.2816 72.7382 96.9027C72.7654 96.7177 72.8081 96.5371 72.8392 96.3477C72.9013 95.9732 72.7538 95.5899 72.4042 95.4842V95.4798Z" fill="#936170"/>
<path d="M112.729 32.9114C110.399 33.4092 108.294 18.0963 102.682 16.3298C97.0701 14.5633 87.5239 12.2549 91.0969 8.55446C94.6661 4.854 108.838 3.21963 112.388 9.10512C115.933 14.995 118.198 31.7484 112.729 32.9158V32.9114Z" fill="#352328"/>
<path d="M112.388 9.09636C108.842 3.21088 94.6663 4.84965 91.0971 8.5457C90.2233 9.44879 90.1417 10.2726 90.5845 11.0215C91.6136 10.9774 92.6506 11.0171 93.7148 11.1669C100.915 11.9069 111.339 17.603 116.003 24.9819C116.035 19.4444 114.427 12.4796 112.388 9.09636Z" fill="#593A42"/>
<path d="M124.753 61.0172C121.775 63.8895 117.052 65.8498 117.052 65.8498C117.549 82.2684 113.867 102.132 109.506 119.454C130.059 89.4887 124.753 61.0216 124.753 61.0216V61.0172Z" fill="#EFDCBD"/>
<path d="M138.75 47.5061C136.37 33.8277 132.198 20.3166 117.098 23.5237C101.999 26.7307 103.315 43.9599 103.762 43.9599C104.208 43.9599 88.2773 63.5503 96.7128 69.2904C105.148 75.0305 117.052 65.8454 117.052 65.8454C117.052 65.8454 121.774 63.8851 124.753 61.0128C124.753 61.0128 130.058 89.4799 109.506 119.445C103.707 142.458 96.7089 160.987 96.7089 160.987H149.17C150.51 121.132 141.205 61.6075 138.746 47.5017L138.75 47.5061Z" fill="#FFF3DB"/>
<path d="M124.054 53.7441C124.054 53.7441 130.905 51.4974 132.276 55.8983C133.647 60.3036 122.481 59.7926 122.481 59.7926C122.481 59.7926 123.848 57.6869 124.054 53.7441Z" fill="#FEB8AC"/>
<path d="M91.9788 60.8014C91.9788 63.6472 94.5343 65.9512 97.6879 65.9512C100.841 65.9512 103.397 63.6472 103.397 60.8014C103.397 57.9556 100.841 55.6516 97.6879 55.6516C94.5343 55.6516 91.9788 57.96 91.9788 60.8014Z" fill="#593A42"/>
<path d="M115.429 46.9114C113.79 46.9114 112.508 44.8762 112.508 42.2814C112.508 41.951 112.745 41.6779 113.04 41.6779C113.335 41.6779 113.572 41.9466 113.572 42.2814C113.572 44.1405 114.423 45.7088 115.432 45.7088C116.442 45.7088 117.293 44.1405 117.293 42.2814C117.293 41.951 117.53 41.6779 117.825 41.6779C118.12 41.6779 118.357 41.9466 118.357 42.2814C118.357 44.8762 117.075 46.9114 115.436 46.9114H115.429Z" fill="#593A42"/>
<path d="M105.781 46.9114C104.142 46.9114 102.861 44.8762 102.861 42.2814C102.861 41.951 103.098 41.6779 103.393 41.6779C103.688 41.6779 103.925 41.9466 103.925 42.2814C103.925 44.1405 104.776 45.7088 105.785 45.7088C106.795 45.7088 107.646 44.1405 107.646 42.2814C107.646 41.951 107.882 41.6779 108.178 41.6779C108.473 41.6779 108.71 41.9466 108.71 42.2814C108.71 44.8762 107.428 46.9114 105.789 46.9114H105.781Z" fill="#593A42"/>
<path d="M129.033 56.4753C127.212 56.3035 125.316 56.4621 123.53 56.9335C123.165 57.0304 123.32 57.6648 123.685 57.5679C125.421 57.1053 127.254 56.9643 129.033 57.1317C129.406 57.167 129.402 56.5106 129.033 56.4753Z" fill="#FC8686"/>
<path d="M99.6451 56.5414C100.853 56.8939 101.801 57.9071 102.239 59.2199C102.542 60.1406 101.245 60.5371 100.942 59.6252C100.674 58.8102 100.018 58.2243 99.2878 58.0128C98.4489 57.7661 98.8062 56.2947 99.6451 56.5414Z" fill="#936170"/>
<path d="M101.867 60.1671C102.197 60.0657 102.628 60.2904 102.694 60.7001C102.725 60.9027 102.772 61.101 102.803 61.2992C102.869 61.7045 102.709 62.1186 102.333 62.2376C102.006 62.3389 101.571 62.1142 101.505 61.7045C101.474 61.5019 101.428 61.3036 101.397 61.1054C101.331 60.7001 101.49 60.286 101.863 60.1671H101.867Z" fill="#936170"/>
<path d="M127.437 33.2815C125.181 32.4621 128.513 17.4224 124.315 12.8452C120.12 8.26373 113.93 1.5148 118.621 0.184397C123.313 -1.146 136.467 5.06107 137.119 12.1536C137.772 19.2462 132.735 35.2066 127.437 33.2859V33.2815Z" fill="#352328"/>
<path d="M123.351 118.097C124.295 110.326 119.277 104.683 113.335 102.423C112.201 108.229 110.888 113.969 109.51 119.454C108.243 124.484 106.915 129.304 105.622 133.762C113.203 134.286 122.462 126.194 123.355 118.101L123.351 118.097Z" fill="#593A42"/>
<path d="M136.451 62.0084C137.659 67.9512 139.492 73.1847 143.007 75.5592C141.252 62.5988 139.597 52.3652 138.751 47.5106C138.323 45.0656 137.842 42.6251 137.248 40.2859C133.329 46.8806 134.37 52.5723 136.451 62.0084Z" fill="#593A42"/>
<path d="M126.924 160.996H149.17C149.458 152.392 149.252 142.868 148.724 133.084C145.959 133.568 143.034 134.617 140.047 135.929C130.156 140.418 124.66 149.89 126.92 161L126.924 160.996Z" fill="#593A42"/>
<path d="M123.01 50.2198C124.284 53.4842 123.713 56.678 122.198 59.6868C120.881 62.2992 118.617 63.6604 116.295 64.8719C115.957 65.0481 116.252 65.6164 116.586 65.4402C119.274 64.0437 121.46 62.4798 122.955 59.5106C124.478 56.4842 124.757 53.0921 123.511 49.8938C123.359 49.5062 122.858 49.841 123.01 50.2242V50.2198Z" fill="#593A42"/>
<path d="M113.335 102.423V102.431C113.063 103.819 112.784 105.198 112.492 106.572C112.438 106.828 112.384 107.083 112.329 107.339C112.1 108.409 111.867 109.476 111.63 110.533C111.545 110.92 111.455 111.304 111.37 111.687C111.153 112.647 110.927 113.603 110.702 114.555C110.617 114.925 110.527 115.295 110.438 115.661C110.131 116.934 109.824 118.202 109.51 119.449C112.9 114.506 115.584 109.603 117.708 104.859C116.372 103.832 114.889 103.009 113.339 102.418L113.335 102.423Z" fill="#352328"/>
<path d="M137.119 12.1492C136.467 5.05665 123.313 -1.14602 118.621 0.179978C117.273 0.563239 116.827 1.39144 116.971 2.48836C121.052 5.16678 124.882 8.39587 127.798 12.5633C132.579 19.5104 131.387 26.4576 128.657 33.4048C133.48 32.7748 137.721 18.6911 137.119 12.1492Z" fill="#593A42"/>
<path d="M138.125 160.996C138.125 160.996 135.526 112.912 147.721 89.9997C159.92 67.0921 174.317 75.4842 179.917 85.0085C179.917 85.0085 188.116 91.1319 195.915 90.9072C195.915 90.9072 192.314 107.238 176.717 99.9821C176.717 99.9821 163.322 101.114 160.72 119.26C158.122 137.405 177.315 160.996 177.315 160.996H138.125Z" fill="#FF740C"/>
<path d="M180.321 85.2993C172.849 90.9821 176.717 99.9821 176.717 99.9821C192.314 107.242 195.915 90.9072 195.915 90.9072C189.134 91.1055 182.054 86.5019 180.321 85.2949V85.2993Z" fill="#FFF3DB"/>
<path d="M152.169 124.775C145.38 140.471 144.549 153.216 144.995 160.996H177.32C177.32 160.996 158.122 137.405 160.724 119.26C163.323 101.114 176.721 99.9821 176.721 99.9821C176.721 99.9821 163.629 98.2816 152.172 124.775H152.169Z" fill="#ED4714"/>
<path d="M198.431 91.7486C196.843 93.6914 194.59 94.2508 193.398 92.9953C192.209 91.7442 192.536 89.1539 194.124 87.2112C195.713 85.2684 197.965 84.7133 199.154 85.9645C200.342 87.2156 200.016 89.8059 198.427 91.7486H198.431Z" fill="#593A42"/>
<path d="M165.936 78.634C165.602 77.5019 160.394 74.2243 158.883 75.1847C157.372 76.145 154.813 92.7442 156.79 96.0614C158.771 99.3742 163.862 83.9777 164.616 82.9116C165.369 81.8411 165.086 86.4402 165.936 85.9028C166.787 85.3698 166.689 81.1979 165.936 78.634Z" fill="#593A42"/>
<path d="M175.716 86.2331C175.716 87.4798 175.156 88.4931 174.465 88.4931C173.774 88.4931 173.214 87.4798 173.214 86.2331C173.214 84.9864 173.774 83.9732 174.465 83.9732C175.156 83.9732 175.716 84.982 175.716 86.2331Z" fill="#593A42"/>
<path d="M178.955 92.0746C177.914 94.7487 178.05 98.5725 181.141 99.1363C181.654 99.2289 181.875 98.339 181.359 98.2465C178.834 97.7839 178.815 94.7134 179.658 92.5416C179.867 92.0042 179.164 91.5328 178.955 92.0746Z" fill="#593A42"/>
<path d="M196.373 85.938C196.012 86.1671 195.686 86.4182 195.394 86.7574C194.656 87.612 195.864 88.8543 196.598 88.0041C196.789 87.7839 197.026 87.6429 197.259 87.4931C198.175 86.9116 197.286 85.3609 196.373 85.9424V85.938Z" fill="#936170"/>
<path d="M194.198 87.8939C193.946 88.123 193.767 88.3477 193.588 88.6516C193.344 89.0745 193.569 89.6825 193.93 89.8983C194.353 90.1494 194.785 89.9292 195.029 89.5106C195.049 89.4886 195.064 89.4666 195.084 89.4446C195.429 89.1318 195.585 88.6208 195.324 88.167C195.099 87.7794 194.544 87.5811 194.198 87.8939Z" fill="#936170"/>
<path d="M243.02 105.551C243.02 105.551 242.679 101.247 241.482 97.3964C240.539 98.577 239.502 99.6651 238.368 100.603L240.807 104.85L243.024 105.551H243.02Z" fill="#EFDCBD"/>
<path d="M241.479 97.3963C241.121 96.2421 240.686 95.1319 240.158 94.1892C239.968 93.85 239.746 93.5328 239.502 93.2288C239.576 92.5328 239.529 91.7575 239.207 91.2288C239.02 90.8808 238.678 90.6429 238.387 90.9777C238.162 91.2376 238.193 91.6473 238.232 91.9865C238.22 91.9777 238.208 91.9733 238.201 91.9601C237.937 90.9293 237.851 89.6782 237.199 88.8764C236.904 88.546 236.554 88.4975 236.36 88.9557C236.119 89.5064 236.344 90.3037 236.457 90.8544C236.146 90.4535 234.585 88.3213 233.987 88.1583C233.451 88.0218 233.505 88.546 233.668 88.9601C233.835 89.3962 234.119 89.7707 234.426 90.1143C231.8 89.4315 229.241 89.8412 228.639 91.6165C227.396 95.2641 236.383 97.1363 236.383 97.1363L238.368 100.595C239.502 99.6562 240.539 98.5637 241.482 97.3875L241.479 97.3963Z" fill="#FFF3DB"/>
<path d="M252.151 99.7311C252.151 99.7311 249.848 94.3743 248.694 95.1584C247.545 95.9426 249.615 99.7311 249.615 99.7311C249.615 99.7311 244.663 95.7355 243.972 97.4051C243.28 99.0791 246.966 101.299 246.966 101.299C246.966 101.299 239.02 103.128 237.063 103.912C235.105 104.696 232.227 107.308 235.797 109.136L236.834 115.273C236.834 115.273 227.505 113.705 226.468 119.194C225.431 124.678 227.388 128.075 228.309 128.075C229.229 128.075 229.92 126.507 229.92 126.507C229.92 126.507 229.431 131.238 231.19 131.766C232.359 132.119 233.031 129.247 233.031 129.247C233.031 129.247 233.734 134.687 235.68 134.603C236.717 134.559 237.086 131.216 237.086 131.216C237.086 131.216 239.94 135.52 241.552 134.603C243.164 133.692 245.7 129.247 245.7 129.247C245.7 129.247 242.014 139.304 242.473 143.745C242.935 148.185 244.547 148.317 245.929 146.749C245.929 146.749 245.238 154.586 247.77 160.987H275.989C275.989 160.987 258.027 109.784 256.182 104.035C256.182 104.035 257.363 96.2862 255.374 95.6738C253.417 95.0703 252.151 99.7223 252.151 99.7223V99.7311Z" fill="#FFF3DB"/>
<path d="M252.392 156.251C252.065 152.674 252.935 143.295 247.716 145.639C248.368 143.048 250.108 137.123 245.867 138.727C246.846 136.753 250.652 129.471 248.694 127.498C247.308 126.084 245.393 129.119 244.018 131.899C244.958 130.559 245.704 129.251 245.704 129.251C245.704 129.251 242.018 139.308 242.476 143.749C242.939 148.189 244.55 148.322 245.933 146.753C245.933 146.753 245.242 154.59 247.774 160.991H261.786C261.546 159.489 261.06 158.071 260.221 156.863C258.373 154.15 254.454 153.533 252.388 156.247L252.392 156.251Z" fill="#EFDCBD"/>
<path d="M229.905 92.2068C230.437 94.2684 236.604 96.1671 236.604 96.1671L241.964 104.313C241.964 104.313 239.113 95.057 238.604 94.1407C238.096 93.2244 229.245 89.6208 229.909 92.2024L229.905 92.2068Z" fill="#FEB8AC"/>
<path d="M262.074 93.6297C261.752 93.6561 261.538 93.9909 261.371 94.2729C261.371 94.2597 261.363 94.2464 261.359 94.2288C261.759 93.2552 262.423 92.2508 262.396 91.1583C262.365 90.6914 262.132 90.3918 261.72 90.59C261.219 90.8235 260.924 91.5945 260.691 92.0922C260.691 91.5592 260.75 88.7883 260.396 88.22C260.074 87.7178 259.806 88.1539 259.689 88.5856C259.561 89.0394 259.557 89.5328 259.588 90.0218C258.012 87.546 255.844 85.9424 254.361 86.8279C251.308 88.6473 256.982 96.7663 256.982 96.7663L255.837 105.868L257.099 108.053C257.099 108.053 260.885 102.15 261.546 97.3654C261.6 96.9689 261.616 96.5636 261.608 96.1539C262.066 95.6826 262.482 95.0658 262.548 94.4271C262.606 94.0262 262.489 93.5945 262.078 93.6253L262.074 93.6297Z" fill="#FFF3DB"/>
<path d="M254.978 88.2156C254.182 90.1627 257.72 96.198 257.72 96.198L256.571 105.881C256.571 105.881 260.249 97.2332 260.396 96.1627C260.544 95.0922 255.976 85.7662 254.974 88.2111L254.978 88.2156Z" fill="#FEB8AC"/>
<path d="M244.873 111.15C245.082 111.542 245.382 111.775 245.754 111.846C246.815 112.048 247.937 110.841 249.083 108.238C249.137 108.11 249.094 107.96 248.982 107.898C248.873 107.832 248.737 107.885 248.683 108.013C247.374 110.978 246.403 111.458 245.828 111.348C245.583 111.304 245.397 111.154 245.257 110.89C244.853 110.132 244.954 108.652 245.183 107.872C245.215 107.762 245.18 107.639 245.09 107.577C245.005 107.515 244.892 107.528 244.815 107.608C244.298 108.158 243.844 108.819 243.42 109.63C243.35 109.766 243.277 109.907 243.203 110.053C242.83 110.788 242.41 111.625 241.797 112.009C241.583 112.141 241.381 112.167 241.199 112.084C240.981 111.982 240.799 111.731 240.702 111.383C240.476 110.652 240.702 109.868 240.919 109.106L240.966 108.938C240.997 108.832 240.962 108.713 240.876 108.647C240.795 108.586 240.686 108.59 240.608 108.665C240.48 108.788 240.352 108.912 240.224 109.039C239.626 109.625 239.008 110.233 238.298 110.52C237.952 110.647 237.696 110.639 237.544 110.493C237.319 110.277 237.249 109.705 237.35 108.934C237.369 108.797 237.284 108.665 237.16 108.643C237.039 108.617 236.923 108.718 236.903 108.859C236.81 109.542 236.798 110.449 237.249 110.885C237.529 111.154 237.925 111.194 238.437 111.009C239.144 110.722 239.738 110.185 240.302 109.634C240.154 110.251 240.072 110.903 240.267 111.546C240.403 112.035 240.678 112.405 241.024 112.559C241.148 112.617 241.276 112.643 241.408 112.643C241.603 112.643 241.805 112.581 242.003 112.458C242.725 112 243.179 111.101 243.583 110.308C243.653 110.163 243.727 110.026 243.793 109.894C244.038 109.423 244.294 109.009 244.566 108.639C244.473 109.48 244.508 110.506 244.857 111.158L244.873 111.15Z" fill="#EFDCBD"/>
<path d="M249.254 117.484C249.227 117.348 249.11 117.264 248.986 117.291C248.866 117.321 248.788 117.458 248.815 117.595C248.943 118.26 248.916 118.973 248.73 119.775C248.353 121.308 247.949 121.647 247.681 121.661C247.141 121.661 246.97 120.401 246.931 120.009C246.858 119.432 246.916 118.894 247.106 118.414C247.153 118.313 247.188 118.233 247.211 118.176C247.258 118.053 247.211 117.907 247.106 117.846C246.997 117.784 246.869 117.832 246.811 117.951C246.768 118.039 246.729 118.123 246.695 118.216C246.454 118.718 245.995 119.418 245.615 119.555C245.514 119.59 245.432 119.581 245.355 119.528C245.261 119.467 245.215 119.383 245.199 119.264C245.129 118.656 245.922 117.467 246.341 116.991C246.43 116.89 246.43 116.731 246.341 116.63C246.252 116.528 246.112 116.528 246.023 116.63C246.007 116.647 244.632 118.26 244.753 119.326C244.784 119.603 244.912 119.824 245.122 119.965C245.308 120.092 245.526 120.119 245.747 120.039C245.999 119.947 246.24 119.731 246.454 119.471C246.454 119.669 246.461 119.868 246.489 120.075C246.628 121.427 247.052 122.172 247.693 122.172C248.625 122.128 249.033 120.462 249.165 119.912C249.367 119.026 249.398 118.233 249.254 117.489V117.484Z" fill="#EFDCBD"/>
<path d="M257.949 139.89C257.837 139.943 257.782 140.092 257.829 140.225C258.039 140.793 257.922 141.947 257.577 142.788C257.371 143.282 257.114 143.608 256.858 143.696C256.54 143.793 256.264 143.705 256.011 143.436C255.448 142.824 255.188 141.41 255.34 140.603C255.367 140.467 255.289 140.335 255.173 140.304C255.052 140.269 254.932 140.357 254.905 140.489C254.598 141.89 254.058 143.181 253.774 143.194C253.712 143.194 253.561 143.048 253.394 142.507C252.889 140.784 252.889 138.286 253.394 136.559C253.429 136.445 253.386 136.317 253.293 136.26C253.2 136.198 253.083 136.22 253.013 136.313C252.423 137.079 251.258 138.216 250.632 137.639C250.438 137.462 250.341 137.233 250.337 136.934C250.314 135.934 251.32 134.48 251.84 133.956C251.934 133.863 251.941 133.7 251.86 133.599C251.778 133.493 251.634 133.484 251.541 133.577C251.013 134.11 249.86 135.7 249.891 136.947C249.902 137.396 250.058 137.766 250.353 138.031C251.099 138.722 252.104 137.982 252.757 137.326C252.446 139.044 252.52 141.11 252.974 142.665C253.052 142.921 253.289 143.7 253.778 143.7C253.786 143.7 253.794 143.7 253.802 143.7C254.275 143.678 254.675 142.846 254.951 142.035C255.072 142.7 255.32 143.374 255.712 143.802C255.98 144.092 256.287 144.238 256.625 144.238C256.745 144.238 256.866 144.22 256.99 144.185C257.382 144.048 257.728 143.639 257.992 143.004C258.4 142.018 258.513 140.736 258.256 140.031C258.21 139.899 258.074 139.841 257.961 139.894L257.949 139.89Z" fill="#EFDCBD"/>
<path d="M261.398 125.603C261.305 125.511 261.165 125.515 261.08 125.621C260.998 125.722 261.002 125.885 261.095 125.978C261.868 126.775 262.319 128.167 261.744 129.11C261.519 129.427 261.235 129.586 260.952 129.559C260.645 129.529 260.361 129.286 260.171 128.89C260.12 128.788 260.02 128.74 259.919 128.762C259.818 128.793 259.748 128.894 259.748 129.009C259.748 130.251 259.542 131.366 259.297 131.484C259.165 131.537 259.091 131.507 259.049 131.476C258.73 131.255 258.614 130.273 258.563 129.855L258.548 129.74C258.532 129.599 258.423 129.502 258.295 129.524C258.175 129.542 258.089 129.674 258.105 129.81L258.12 129.925C258.19 130.502 258.318 131.573 258.819 131.916C258.901 131.973 259.018 132.026 259.169 132.026C259.254 132.026 259.355 132.009 259.464 131.965C259.969 131.718 260.128 130.546 260.179 129.709C260.392 129.921 260.645 130.044 260.913 130.07C261.356 130.11 261.771 129.885 262.105 129.414C262.855 128.185 262.299 126.533 261.398 125.603Z" fill="#EFDCBD"/>
<path d="M256.26 118.216C256.404 118.304 256.555 118.348 256.707 118.348C256.858 118.348 257.014 118.304 257.165 118.216C257.398 118.084 257.565 117.846 257.65 117.515C257.856 116.749 257.592 115.581 257.332 115.066C257.27 114.943 257.134 114.899 257.025 114.969C256.916 115.04 256.878 115.194 256.944 115.317C257.13 115.692 257.394 116.727 257.219 117.37C257.169 117.564 257.083 117.692 256.959 117.762C256.78 117.859 256.625 117.863 256.47 117.766C255.973 117.458 255.619 116.255 255.565 115.67C255.553 115.533 255.448 115.436 255.316 115.445C255.192 115.458 255.107 115.586 255.118 115.727C255.177 116.321 255.545 117.771 256.256 118.211L256.26 118.216Z" fill="#EFDCBD"/>
<path d="M256.955 114.097C256.955 114.097 256.982 114.097 256.994 114.097C257.32 114.097 257.608 113.894 257.786 113.524C258.233 112.511 257.014 110.449 256.474 109.837C256.384 109.74 256.245 109.74 256.155 109.837C256.07 109.938 256.07 110.097 256.155 110.198C256.734 110.854 257.67 112.652 257.39 113.286C257.289 113.493 257.146 113.599 256.975 113.586C256.714 113.573 256.435 113.321 256.295 112.969C256.245 112.841 256.112 112.784 256 112.841C255.887 112.899 255.837 113.048 255.887 113.176C256.093 113.705 256.524 114.075 256.955 114.097Z" fill="#EFDCBD"/>
<path d="M251.068 148.727C250.967 148.811 250.947 148.969 251.017 149.084C251.569 149.943 252.567 153.088 251.592 153.899C251.456 154.004 251.328 154.018 251.18 153.947C250.862 153.784 250.551 153.229 250.427 152.758C250.403 152.639 250.384 152.537 250.368 152.454C250.345 152.322 250.236 152.225 250.116 152.247C249.996 152.269 249.914 152.392 249.926 152.529C249.933 152.626 249.957 152.74 249.984 152.859C250.007 152.982 250.038 153.115 250.066 153.264C250.279 154.282 250.726 156.405 250.248 156.784C250.007 156.96 249.848 156.899 249.751 156.837C249.005 156.37 248.574 153.692 248.574 152.929C248.574 152.789 248.473 152.674 248.349 152.674C248.225 152.674 248.124 152.789 248.124 152.929C248.124 153.52 248.508 156.643 249.533 157.282C249.642 157.348 249.782 157.405 249.949 157.405C250.116 157.405 250.295 157.352 250.497 157.207C251.04 156.775 250.963 155.608 250.71 154.216C250.796 154.3 250.889 154.37 250.99 154.418C251.281 154.568 251.576 154.537 251.844 154.322C253.138 153.247 251.984 149.758 251.37 148.793C251.297 148.678 251.157 148.652 251.056 148.736L251.068 148.727Z" fill="#FFF3DB"/>
<path d="M266.203 143.753L266.16 143.656C266.105 143.529 265.97 143.48 265.857 143.542C265.748 143.603 265.702 143.758 265.756 143.881L265.799 143.978C266.319 145.154 267.399 147.608 266.742 148.802C266.645 148.965 266.502 149.15 266.366 149.128C266.105 149.084 265.733 148.388 265.5 147.511C265.465 147.374 265.336 147.299 265.22 147.339C265.1 147.379 265.034 147.52 265.068 147.656C265.181 148.088 265.608 149.515 266.296 149.63C266.327 149.634 266.362 149.639 266.393 149.639C266.653 149.639 266.898 149.454 267.119 149.075C267.911 147.634 266.758 145.009 266.199 143.749L266.203 143.753Z" fill="#EFDCBD"/>
<path d="M263.81 147.762C263.69 147.797 263.616 147.934 263.647 148.07C264.125 150.238 264.175 151.952 263.763 152.238C263.562 152.379 263.134 152.159 262.587 151.63C262.493 151.542 262.35 151.551 262.268 151.661C262.187 151.767 262.198 151.93 262.295 152.018C262.831 152.533 263.266 152.789 263.62 152.789C263.76 152.789 263.884 152.749 264 152.67C264.878 152.053 264.35 149.159 264.082 147.943C264.051 147.806 263.93 147.722 263.81 147.758V147.762Z" fill="#EFDCBD"/>
<path d="M238.799 120.995C238.274 123.427 235.206 124.669 231.948 123.766C228.689 122.863 226.472 120.154 226.996 117.722C227.52 115.291 230.589 114.048 233.847 114.951C237.105 115.854 239.323 118.564 238.799 120.995Z" fill="#593A42"/>
<path d="M230.122 115.467C229.077 115.758 228.122 116.713 227.897 117.929C227.773 118.599 228.697 118.727 228.821 118.066C228.957 117.348 229.645 116.683 230.258 116.515C230.837 116.357 230.713 115.308 230.126 115.467H230.122Z" fill="#936170"/>
<path d="M227.788 118.877C227.664 119.247 227.676 119.634 227.831 119.991C228.095 120.599 228.953 120.18 228.685 119.568C228.635 119.454 228.612 119.392 228.65 119.273C228.864 118.634 227.998 118.238 227.788 118.877Z" fill="#936170"/>
<path d="M238.877 113.841C238.877 114.674 238.477 115.343 237.983 115.343C237.49 115.343 237.09 114.669 237.09 113.841C237.09 113.013 237.49 112.335 237.983 112.335C238.477 112.335 238.877 113.009 238.877 113.841Z" fill="#593A42"/>
<path d="M244.593 113.841C244.593 114.674 244.193 115.343 243.7 115.343C243.207 115.343 242.807 114.669 242.807 113.841C242.807 113.013 243.207 112.335 243.7 112.335C244.193 112.335 244.593 113.009 244.593 113.841Z" fill="#593A42"/>
</svg>
